<mxfile host="app.diagrams.net" agent="Mozilla/5.0 (X11; Ubuntu; Linux x86_64; rv:142.0) Gecko/20100101 Firefox/142.0" version="28.2.1">
  <diagram id="R2lEEEUBdFMjLlhIrx00" name="Page-1">
    <mxGraphModel dx="815" dy="456" grid="1" gridSize="10" guides="1" tooltips="1" connect="1" arrows="1" fold="1" page="1" pageScale="1" pageWidth="850" pageHeight="1100" math="0" shadow="0" extFonts="Permanent Marker^https://fonts.googleapis.com/css?family=Permanent+Marker">
      <root>
        <mxCell id="0" />
        <mxCell id="1" parent="0" />
        <mxCell id="XrPNCrt0sU9ygLMACBDO-2" style="edgeStyle=orthogonalEdgeStyle;rounded=0;orthogonalLoop=1;jettySize=auto;html=1;exitX=1;exitY=0.5;exitDx=0;exitDy=0;shape=wire;dashed=1;endArrow=none;endFill=0;entryX=0;entryY=0.5;entryDx=0;entryDy=0;" edge="1" parent="1" target="XrPNCrt0sU9ygLMACBDO-5">
          <mxGeometry relative="1" as="geometry">
            <mxPoint x="220" y="94.71" as="targetPoint" />
            <mxPoint x="140" y="94.71" as="sourcePoint" />
            <Array as="points">
              <mxPoint x="260" y="95" />
            </Array>
          </mxGeometry>
        </mxCell>
        <mxCell id="XrPNCrt0sU9ygLMACBDO-49" style="edgeStyle=orthogonalEdgeStyle;rounded=0;orthogonalLoop=1;jettySize=auto;html=1;exitX=0.5;exitY=1;exitDx=0;exitDy=0;endArrow=none;endFill=0;entryX=0.5;entryY=0;entryDx=0;entryDy=0;" edge="1" parent="1" source="XrPNCrt0sU9ygLMACBDO-1" target="XrPNCrt0sU9ygLMACBDO-51">
          <mxGeometry relative="1" as="geometry">
            <mxPoint x="105" y="160" as="targetPoint" />
          </mxGeometry>
        </mxCell>
        <mxCell id="XrPNCrt0sU9ygLMACBDO-1" value="Cliente" style="rounded=0;whiteSpace=wrap;html=1;" vertex="1" parent="1">
          <mxGeometry x="50" y="70" width="110" height="50" as="geometry" />
        </mxCell>
        <mxCell id="XrPNCrt0sU9ygLMACBDO-11" value="" style="edgeStyle=orthogonalEdgeStyle;rounded=0;orthogonalLoop=1;jettySize=auto;html=1;endArrow=none;endFill=0;entryX=0.5;entryY=0;entryDx=0;entryDy=0;" edge="1" parent="1" target="XrPNCrt0sU9ygLMACBDO-16">
          <mxGeometry relative="1" as="geometry">
            <mxPoint x="395" y="130" as="sourcePoint" />
            <mxPoint x="395" y="160" as="targetPoint" />
          </mxGeometry>
        </mxCell>
        <mxCell id="XrPNCrt0sU9ygLMACBDO-14" style="edgeStyle=orthogonalEdgeStyle;rounded=0;orthogonalLoop=1;jettySize=auto;html=1;exitX=1;exitY=0.5;exitDx=0;exitDy=0;entryX=0;entryY=0.5;entryDx=0;entryDy=0;endArrow=none;endFill=0;" edge="1" parent="1" source="XrPNCrt0sU9ygLMACBDO-3" target="XrPNCrt0sU9ygLMACBDO-13">
          <mxGeometry relative="1" as="geometry">
            <Array as="points">
              <mxPoint x="480" y="95" />
              <mxPoint x="480" y="55" />
              <mxPoint x="510" y="55" />
            </Array>
          </mxGeometry>
        </mxCell>
        <mxCell id="XrPNCrt0sU9ygLMACBDO-3" value="Vehículo" style="rounded=0;whiteSpace=wrap;html=1;" vertex="1" parent="1">
          <mxGeometry x="340" y="70" width="110" height="50" as="geometry" />
        </mxCell>
        <mxCell id="XrPNCrt0sU9ygLMACBDO-6" style="edgeStyle=orthogonalEdgeStyle;rounded=0;orthogonalLoop=1;jettySize=auto;html=1;exitX=1;exitY=0.5;exitDx=0;exitDy=0;entryX=0;entryY=0.5;entryDx=0;entryDy=0;endArrow=none;endFill=0;" edge="1" parent="1" source="XrPNCrt0sU9ygLMACBDO-5" target="XrPNCrt0sU9ygLMACBDO-3">
          <mxGeometry relative="1" as="geometry" />
        </mxCell>
        <mxCell id="XrPNCrt0sU9ygLMACBDO-5" value="tiene" style="rhombus;whiteSpace=wrap;html=1;" vertex="1" parent="1">
          <mxGeometry x="220" y="67.5" width="60" height="55" as="geometry" />
        </mxCell>
        <mxCell id="XrPNCrt0sU9ygLMACBDO-7" value="1" style="text;html=1;align=center;verticalAlign=middle;resizable=0;points=[];autosize=1;strokeColor=none;fillColor=none;" vertex="1" parent="1">
          <mxGeometry x="160" y="67.5" width="30" height="30" as="geometry" />
        </mxCell>
        <mxCell id="XrPNCrt0sU9ygLMACBDO-8" value="n" style="text;html=1;align=center;verticalAlign=middle;resizable=0;points=[];autosize=1;strokeColor=none;fillColor=none;" vertex="1" parent="1">
          <mxGeometry x="310" y="67.5" width="30" height="30" as="geometry" />
        </mxCell>
        <mxCell id="XrPNCrt0sU9ygLMACBDO-34" style="edgeStyle=orthogonalEdgeStyle;rounded=0;orthogonalLoop=1;jettySize=auto;html=1;exitX=1;exitY=0.5;exitDx=0;exitDy=0;entryX=0;entryY=0.5;entryDx=0;entryDy=0;endArrow=none;endFill=0;" edge="1" parent="1" source="XrPNCrt0sU9ygLMACBDO-10" target="XrPNCrt0sU9ygLMACBDO-47">
          <mxGeometry relative="1" as="geometry">
            <mxPoint x="510" y="265" as="targetPoint" />
          </mxGeometry>
        </mxCell>
        <mxCell id="XrPNCrt0sU9ygLMACBDO-44" style="edgeStyle=orthogonalEdgeStyle;rounded=0;orthogonalLoop=1;jettySize=auto;html=1;exitX=0.5;exitY=1;exitDx=0;exitDy=0;entryX=0.5;entryY=0;entryDx=0;entryDy=0;endArrow=none;endFill=0;" edge="1" parent="1" source="XrPNCrt0sU9ygLMACBDO-10" target="XrPNCrt0sU9ygLMACBDO-43">
          <mxGeometry relative="1" as="geometry" />
        </mxCell>
        <mxCell id="XrPNCrt0sU9ygLMACBDO-10" value="Póliza de Seguro" style="whiteSpace=wrap;html=1;rounded=0;" vertex="1" parent="1">
          <mxGeometry x="340" y="240" width="110" height="50" as="geometry" />
        </mxCell>
        <mxCell id="XrPNCrt0sU9ygLMACBDO-12" value="accidentes" style="ellipse;whiteSpace=wrap;html=1;" vertex="1" parent="1">
          <mxGeometry x="510" y="70" width="70" height="30" as="geometry" />
        </mxCell>
        <mxCell id="XrPNCrt0sU9ygLMACBDO-13" value="&lt;div&gt;&lt;u&gt;idVehiculo&lt;/u&gt;&lt;/div&gt;" style="ellipse;whiteSpace=wrap;html=1;" vertex="1" parent="1">
          <mxGeometry x="510" y="40" width="70" height="30" as="geometry" />
        </mxCell>
        <mxCell id="XrPNCrt0sU9ygLMACBDO-19" style="edgeStyle=orthogonalEdgeStyle;rounded=0;orthogonalLoop=1;jettySize=auto;html=1;exitX=0.5;exitY=1;exitDx=0;exitDy=0;entryX=0.5;entryY=0;entryDx=0;entryDy=0;endArrow=none;endFill=0;" edge="1" parent="1" source="XrPNCrt0sU9ygLMACBDO-16" target="XrPNCrt0sU9ygLMACBDO-10">
          <mxGeometry relative="1" as="geometry" />
        </mxCell>
        <mxCell id="XrPNCrt0sU9ygLMACBDO-16" value="&lt;div&gt;cubierto&lt;/div&gt;" style="rhombus;whiteSpace=wrap;html=1;" vertex="1" parent="1">
          <mxGeometry x="365" y="150" width="60" height="55" as="geometry" />
        </mxCell>
        <mxCell id="XrPNCrt0sU9ygLMACBDO-20" value="n" style="text;html=1;align=center;verticalAlign=middle;resizable=0;points=[];autosize=1;strokeColor=none;fillColor=none;" vertex="1" parent="1">
          <mxGeometry x="395" y="120" width="30" height="30" as="geometry" />
        </mxCell>
        <mxCell id="XrPNCrt0sU9ygLMACBDO-21" value="1" style="text;html=1;align=center;verticalAlign=middle;resizable=0;points=[];autosize=1;strokeColor=none;fillColor=none;" vertex="1" parent="1">
          <mxGeometry x="395" y="210" width="30" height="30" as="geometry" />
        </mxCell>
        <mxCell id="XrPNCrt0sU9ygLMACBDO-23" value="" style="edgeStyle=orthogonalEdgeStyle;rounded=0;orthogonalLoop=1;jettySize=auto;html=1;endArrow=none;endFill=0;entryDx=0;entryDy=0;" edge="1" parent="1" source="XrPNCrt0sU9ygLMACBDO-28">
          <mxGeometry relative="1" as="geometry">
            <mxPoint x="395" y="120" as="sourcePoint" />
            <mxPoint x="395" y="130" as="targetPoint" />
          </mxGeometry>
        </mxCell>
        <mxCell id="XrPNCrt0sU9ygLMACBDO-29" value="" style="edgeStyle=orthogonalEdgeStyle;rounded=0;orthogonalLoop=1;jettySize=auto;html=1;endArrow=none;endFill=0;entryDx=0;entryDy=0;" edge="1" parent="1" source="XrPNCrt0sU9ygLMACBDO-3" target="XrPNCrt0sU9ygLMACBDO-28">
          <mxGeometry relative="1" as="geometry">
            <mxPoint x="395" y="120" as="sourcePoint" />
            <mxPoint x="395" y="130" as="targetPoint" />
          </mxGeometry>
        </mxCell>
        <mxCell id="XrPNCrt0sU9ygLMACBDO-28" value="" style="ellipse;whiteSpace=wrap;html=1;" vertex="1" parent="1">
          <mxGeometry x="390" y="130" width="10" height="10" as="geometry" />
        </mxCell>
        <mxCell id="XrPNCrt0sU9ygLMACBDO-35" style="edgeStyle=orthogonalEdgeStyle;rounded=0;orthogonalLoop=1;jettySize=auto;html=1;exitX=1;exitY=0.5;exitDx=0;exitDy=0;entryX=0;entryY=0.5;entryDx=0;entryDy=0;endArrow=none;endFill=0;" edge="1" parent="1" source="XrPNCrt0sU9ygLMACBDO-47" target="XrPNCrt0sU9ygLMACBDO-46">
          <mxGeometry relative="1" as="geometry">
            <mxPoint x="570" y="265" as="sourcePoint" />
            <mxPoint x="620" y="265" as="targetPoint" />
          </mxGeometry>
        </mxCell>
        <mxCell id="XrPNCrt0sU9ygLMACBDO-41" style="edgeStyle=orthogonalEdgeStyle;rounded=0;orthogonalLoop=1;jettySize=auto;html=1;exitX=0.5;exitY=0;exitDx=0;exitDy=0;entryX=0;entryY=0.5;entryDx=0;entryDy=0;endArrow=none;endFill=0;" edge="1" parent="1" source="XrPNCrt0sU9ygLMACBDO-46" target="XrPNCrt0sU9ygLMACBDO-40">
          <mxGeometry relative="1" as="geometry">
            <mxPoint x="675" y="240" as="sourcePoint" />
          </mxGeometry>
        </mxCell>
        <mxCell id="XrPNCrt0sU9ygLMACBDO-36" value="1" style="text;html=1;align=center;verticalAlign=middle;resizable=0;points=[];autosize=1;strokeColor=none;fillColor=none;" vertex="1" parent="1">
          <mxGeometry x="450" y="237.5" width="30" height="30" as="geometry" />
        </mxCell>
        <mxCell id="XrPNCrt0sU9ygLMACBDO-37" value="n" style="text;html=1;align=center;verticalAlign=middle;resizable=0;points=[];autosize=1;strokeColor=none;fillColor=none;" vertex="1" parent="1">
          <mxGeometry x="600" y="237.5" width="30" height="30" as="geometry" />
        </mxCell>
        <mxCell id="XrPNCrt0sU9ygLMACBDO-39" value="fechaDeVenc" style="ellipse;whiteSpace=wrap;html=1;" vertex="1" parent="1">
          <mxGeometry x="760" y="190" width="80" height="30" as="geometry" />
        </mxCell>
        <mxCell id="XrPNCrt0sU9ygLMACBDO-40" value="&lt;u&gt;fechaDePago&lt;/u&gt;" style="ellipse;whiteSpace=wrap;html=1;" vertex="1" parent="1">
          <mxGeometry x="760" y="160" width="80" height="30" as="geometry" />
        </mxCell>
        <mxCell id="XrPNCrt0sU9ygLMACBDO-43" value="&lt;u&gt;nroPóliza&lt;/u&gt;" style="ellipse;whiteSpace=wrap;html=1;" vertex="1" parent="1">
          <mxGeometry x="360" y="320" width="70" height="30" as="geometry" />
        </mxCell>
        <mxCell id="XrPNCrt0sU9ygLMACBDO-46" value="&amp;nbsp;Pago de Prima" style="shape=ext;margin=3;double=1;whiteSpace=wrap;html=1;align=center;" vertex="1" parent="1">
          <mxGeometry x="630" y="245" width="100" height="40" as="geometry" />
        </mxCell>
        <mxCell id="XrPNCrt0sU9ygLMACBDO-47" value="&lt;div&gt;tiene&lt;/div&gt;" style="shape=rhombus;double=1;perimeter=rhombusPerimeter;whiteSpace=wrap;html=1;align=center;" vertex="1" parent="1">
          <mxGeometry x="505" y="240" width="75" height="50" as="geometry" />
        </mxCell>
        <mxCell id="XrPNCrt0sU9ygLMACBDO-51" value="&lt;div&gt;&lt;u&gt;idCliente&lt;/u&gt;&lt;/div&gt;" style="ellipse;whiteSpace=wrap;html=1;" vertex="1" parent="1">
          <mxGeometry x="70" y="170" width="70" height="30" as="geometry" />
        </mxCell>
      </root>
    </mxGraphModel>
  </diagram>
</mxfile>
